<svg width="478" height="95" viewBox="0 0 478 95" fill="none" xmlns="http://www.w3.org/2000/svg">
<path d="M90.776 67.392H89.624C89.2827 68.1173 88.856 68.8213 88.344 69.504C87.8747 70.144 87.2347 70.72 86.424 71.232C85.656 71.744 84.7173 72.1493 83.608 72.448C82.5413 72.7467 81.24 72.896 79.704 72.896C77.7413 72.896 75.9067 72.5547 74.2 71.872C72.536 71.1467 71.064 70.1013 69.784 68.736C68.5467 67.328 67.5653 65.6213 66.84 63.616C66.1573 61.6107 65.816 59.3067 65.816 56.704V55.552C65.816 52.992 66.1787 50.7093 66.904 48.704C67.672 46.6987 68.696 45.0133 69.976 43.648C71.2987 42.24 72.8133 41.1733 74.52 40.448C76.2693 39.7227 78.104 39.36 80.024 39.36C82.584 39.36 84.6107 39.8507 86.104 40.832C87.5973 41.7707 88.7707 43.1147 89.624 44.864H90.776V27.2H98.84V72H90.776V67.392ZM82.328 65.216C84.8453 65.216 86.872 64.4267 88.408 62.848C89.9867 61.2267 90.776 59.1147 90.776 56.512V55.744C90.776 53.1413 89.9867 51.0507 88.408 49.472C86.872 47.8507 84.8453 47.04 82.328 47.04C79.8107 47.04 77.7627 47.8293 76.184 49.408C74.648 50.944 73.88 53.056 73.88 55.744V56.512C73.88 59.2 74.648 61.3333 76.184 62.912C77.7627 64.448 79.8107 65.216 82.328 65.216ZM127.724 67.392C126.87 69.3973 125.676 70.8267 124.14 71.68C122.604 72.4907 120.812 72.896 118.764 72.896C116.844 72.896 115.03 72.5333 113.324 71.808C111.66 71.0827 110.188 70.016 108.908 68.608C107.628 67.2 106.604 65.4933 105.836 63.488C105.11 61.4827 104.748 59.2 104.748 56.64V55.616C104.748 53.0987 105.11 50.8373 105.836 48.832C106.561 46.8267 107.542 45.12 108.78 43.712C110.017 42.304 111.446 41.2373 113.068 40.512C114.732 39.744 116.502 39.36 118.38 39.36C120.641 39.36 122.454 39.744 123.82 40.512C125.228 41.28 126.337 42.4747 127.148 44.096H128.3V40.256H136.364V62.4C136.364 63.68 136.94 64.32 138.092 64.32H139.308V72H133.804C132.353 72 131.158 71.5733 130.22 70.72C129.324 69.8667 128.876 68.7573 128.876 67.392H127.724ZM120.556 65.216C122.902 65.216 124.78 64.448 126.188 62.912C127.596 61.3333 128.3 59.2 128.3 56.512V55.744C128.3 53.056 127.596 50.944 126.188 49.408C124.78 47.8293 122.902 47.04 120.556 47.04C118.209 47.04 116.332 47.8293 114.924 49.408C113.516 50.944 112.812 53.056 112.812 55.744V56.512C112.812 59.2 113.516 61.3333 114.924 62.912C116.332 64.448 118.209 65.216 120.556 65.216ZM145.471 40.256H154.879V27.2H162.943V40.256H174.399V47.936H162.943V62.4C162.943 63.68 163.519 64.32 164.671 64.32H173.247V72H159.807C158.356 72 157.162 71.5307 156.223 70.592C155.327 69.6533 154.879 68.4587 154.879 67.008V47.936H145.471V40.256ZM206.099 67.392C205.245 69.3973 204.051 70.8267 202.515 71.68C200.979 72.4907 199.187 72.896 197.139 72.896C195.219 72.896 193.405 72.5333 191.699 71.808C190.035 71.0827 188.563 70.016 187.283 68.608C186.003 67.2 184.979 65.4933 184.211 63.488C183.485 61.4827 183.123 59.2 183.123 56.64V55.616C183.123 53.0987 183.485 50.8373 184.211 48.832C184.936 46.8267 185.917 45.12 187.155 43.712C188.392 42.304 189.821 41.2373 191.443 40.512C193.107 39.744 194.877 39.36 196.755 39.36C199.016 39.36 200.829 39.744 202.195 40.512C203.603 41.28 204.712 42.4747 205.523 44.096H206.675V40.256H214.739V62.4C214.739 63.68 215.315 64.32 216.467 64.32H217.683V72H212.179C210.728 72 209.533 71.5733 208.595 70.72C207.699 69.8667 207.251 68.7573 207.251 67.392H206.099ZM198.931 65.216C201.277 65.216 203.155 64.448 204.563 62.912C205.971 61.3333 206.675 59.2 206.675 56.512V55.744C206.675 53.056 205.971 50.944 204.563 49.408C203.155 47.8293 201.277 47.04 198.931 47.04C196.584 47.04 194.707 47.8293 193.299 49.408C191.891 50.944 191.187 53.056 191.187 55.744V56.512C191.187 59.2 191.891 61.3333 193.299 62.912C194.707 64.448 196.584 65.216 198.931 65.216Z" fill="#01A863"/>
<path d="M248.26 68.44H247.54C247.06 69.36 246.44 70.16 245.68 70.84C244.96 71.52 244.16 72.08 243.28 72.52C242.44 72.96 241.54 73.28 240.58 73.48C239.62 73.72 238.7 73.84 237.82 73.84C235.82 73.84 233.96 73.5 232.24 72.82C230.52 72.14 229 71.16 227.68 69.88C226.4 68.6 225.38 67.02 224.62 65.14C223.9 63.22 223.54 61.04 223.54 58.6V57.64C223.54 55.24 223.92 53.1 224.68 51.22C225.44 49.3 226.46 47.7 227.74 46.42C229.02 45.1 230.52 44.1 232.24 43.42C233.96 42.74 235.78 42.4 237.7 42.4C239.74 42.4 241.64 42.86 243.4 43.78C245.2 44.66 246.58 46.04 247.54 47.92H248.26V31H252.94V73H248.26V68.44ZM238.3 69.4C239.7 69.4 241 69.14 242.2 68.62C243.4 68.1 244.44 67.36 245.32 66.4C246.24 65.44 246.96 64.3 247.48 62.98C248 61.62 248.26 60.12 248.26 58.48V57.76C248.26 56.16 248 54.7 247.48 53.38C246.96 52.02 246.24 50.86 245.32 49.9C244.44 48.94 243.38 48.2 242.14 47.68C240.94 47.12 239.66 46.84 238.3 46.84C236.9 46.84 235.58 47.1 234.34 47.62C233.14 48.14 232.08 48.88 231.16 49.84C230.28 50.8 229.58 51.94 229.06 53.26C228.58 54.58 228.34 56.04 228.34 57.64V58.6C228.34 60.28 228.58 61.78 229.06 63.1C229.58 64.42 230.28 65.56 231.16 66.52C232.08 67.44 233.14 68.16 234.34 68.68C235.54 69.16 236.86 69.4 238.3 69.4ZM271.198 34.36C271.198 33.2 271.598 32.22 272.398 31.42C273.238 30.58 274.238 30.16 275.398 30.16C276.558 30.16 277.538 30.58 278.338 31.42C279.178 32.22 279.598 33.2 279.598 34.36C279.598 35.52 279.178 36.52 278.338 37.36C277.538 38.16 276.558 38.56 275.398 38.56C274.238 38.56 273.238 38.16 272.398 37.36C271.598 36.52 271.198 35.52 271.198 34.36ZM262.678 68.68H273.118V47.56H263.758V43.24H277.798V68.68H287.518V73H262.678V68.68ZM304.877 50.92C304.877 52.36 305.477 53.46 306.677 54.22C307.917 54.98 310.157 55.48 313.397 55.72C316.877 56 319.517 56.84 321.317 58.24C323.157 59.6 324.077 61.6 324.077 64.24V64.6C324.077 66.04 323.777 67.34 323.177 68.5C322.617 69.62 321.817 70.58 320.777 71.38C319.777 72.18 318.537 72.78 317.057 73.18C315.617 73.62 314.037 73.84 312.317 73.84C309.997 73.84 307.997 73.54 306.317 72.94C304.677 72.3 303.297 71.48 302.177 70.48C301.097 69.44 300.277 68.28 299.717 67C299.157 65.68 298.837 64.36 298.757 63.04L303.197 61.96C303.397 64.24 304.277 66.08 305.837 67.48C307.397 68.84 309.477 69.52 312.077 69.52C314.277 69.52 316.037 69.1 317.357 68.26C318.717 67.38 319.397 66.16 319.397 64.6C319.397 62.92 318.737 61.72 317.417 61C316.097 60.28 313.957 59.82 310.997 59.62C307.557 59.38 304.917 58.58 303.077 57.22C301.237 55.86 300.317 53.88 300.317 51.28V50.92C300.317 49.52 300.617 48.3 301.217 47.26C301.817 46.18 302.617 45.28 303.617 44.56C304.657 43.84 305.817 43.3 307.097 42.94C308.377 42.58 309.717 42.4 311.117 42.4C313.077 42.4 314.797 42.68 316.277 43.24C317.757 43.76 318.997 44.46 319.997 45.34C320.997 46.18 321.757 47.16 322.277 48.28C322.837 49.4 323.197 50.52 323.357 51.64L318.917 52.72C318.717 50.8 317.937 49.3 316.577 48.22C315.257 47.14 313.517 46.6 311.357 46.6C310.517 46.6 309.697 46.7 308.897 46.9C308.137 47.06 307.457 47.32 306.857 47.68C306.257 48.04 305.777 48.5 305.417 49.06C305.057 49.58 304.877 50.2 304.877 50.92ZM334.415 43.24H343.775V31H348.455V43.24H359.975V47.56H348.455V66.88C348.455 68.08 348.995 68.68 350.075 68.68H358.535V73H348.395C347.035 73 345.915 72.56 345.035 71.68C344.195 70.8 343.775 69.68 343.775 68.32V47.56H334.415V43.24ZM381.413 34.36C381.413 33.2 381.813 32.22 382.613 31.42C383.453 30.58 384.453 30.16 385.613 30.16C386.773 30.16 387.753 30.58 388.553 31.42C389.393 32.22 389.813 33.2 389.813 34.36C389.813 35.52 389.393 36.52 388.553 37.36C387.753 38.16 386.773 38.56 385.613 38.56C384.453 38.56 383.453 38.16 382.613 37.36C381.813 36.52 381.413 35.52 381.413 34.36ZM372.893 68.68H383.333V47.56H373.973V43.24H388.013V68.68H397.733V73H372.893V68.68ZM408.911 68.68H419.711V35.32H409.271V31H424.391V68.68H435.191V73H408.911V68.68ZM445.65 68.68H456.45V35.32H446.01V31H461.13V68.68H471.93V73H445.65V68.68Z" fill="#FFFFFF"/>
<rect width="34.1549" height="7.29773" rx="3.64887" transform="matrix(0.937847 0.347049 0.233123 -0.972447 6.52344 72.716)" fill="#FFFFFF"/>
<rect width="34.1549" height="7.29773" rx="3.64887" transform="matrix(0.937847 0.347049 0.233123 -0.972447 6.52344 54.9527)" fill="#FFFFFF"/>
<rect width="34.1549" height="7.29773" rx="3.64887" transform="matrix(0.937847 0.347049 0.233123 -0.972447 6.52344 37.1895)" fill="#FFFFFF"/>
<rect width="34.1549" height="7.29773" rx="3.64887" transform="matrix(0.937847 0.347049 0.233123 -0.972447 6.52344 19.4261)" fill="#FFFFFF"/>
</svg>
